#!OML:ASF X:\für Bonn\!DataBase\2005_08_10_Bjorn_Final\c3d\bjorn.ASF
:FULLY-SPECIFIED
:DEGREES
166
root 6.71688 18.6721 -28.4379 139.669 -80.6309 -131.887
lowerback -3.8329 -5.40822 7.0894
upperback 6.92905 -8.29716 2.45379
thorax 8.90178 -3.75941 -2.23334
lowerneck -2.39559 6.75853 2.32296
upperneck 0.873209 9.05532 -7.31448
head 1.16517 4.44474 -2.52903
rclavicle 5.22804e-014 -2.94201e-014
rhumerus -62.4173 2.27727 -87.6321
rradius 76.0397
rwrist 0.322124
rhand -28.5937 31.2894
rfingers 7.12502
rthumb -1.95933 1.31865
lclavicle 5.22804e-014 -2.94201e-014
lhumerus -24.1582 -39.6686 95.6314
lradius 97.2041
lwrist -6.33416
lhand -45.1633 -28.9737
lfingers 7.12502
lthumb -17.9408 0.218797
rfemur -32.0928 -1.43416 9.43071
rtibia 33.372
rfoot -3.37286 13.4831
rtoes -33.7246
lfemur 9.84975 -8.54572 -23.2142
ltibia 44.083
lfoot 2.62416 12.9437
ltoes 3.83341
167
root 6.45822 18.5946 -28.536 135.689 -80.9099 -128.153
lowerback -3.61476 -5.29106 7.45684
upperback 7.05546 -8.17735 2.54449
thorax 8.89351 -3.68359 -2.30747
lowerneck -2.88399 6.74857 1.77018
upperneck 0.922087 9.05369 -6.97015
head 1.21617 4.43488 -2.30228
rclavicle -3.84648e-014 -9.14409e-015
rhumerus -61.759 2.14954 -87.772
rradius 76.3737
rwrist -0.404217
rhand -28.8731 31.0811
rfingers 7.12502
rthumb -2.22912 1.11299
lclavicle -3.84648e-014 -9.14409e-015
lhumerus -24.7802 -39.9429 96.1321
lradius 96.6846
lwrist -7.02536
lhand -45.7619 -29.2569
lfingers 7.12502
lthumb -18.5167 -0.118213
rfemur -31.4795 -1.46762 9.69248
rtibia 34.3921
rfoot -4.81974 13.4911
rtoes -33.5847
lfemur 9.21512 -8.79846 -23.021
ltibia 47.0953
lfoot 2.02538 15.3276
ltoes 2.67311
168
root 6.20325 18.5047 -28.6356 131.539 -81.0493 -124.315
lowerback -3.34842 -5.12238 7.86645
upperback 7.24176 -7.9959 2.64419
thorax 8.92766 -3.57389 -2.38868
lowerneck -3.36909 6.75398 1.45373
upperneck 0.919566 9.07051 -6.85929
head 1.27701 4.43339 -2.19429
rclavicle 4.65653e-014 1.47101e-014
rhumerus -61.1224 2.35031 -87.9651
rradius 76.7757
rwrist -1.28536
rhand -29.2836 30.7347
rfingers 7.12502
rthumb -2.62564 0.77114
lclavicle 4.65653e-014 1.47101e-014
lhumerus -25.3961 -40.157 96.7446
lradius 96.1119
lwrist -7.63825
lhand -46.1641 -29.2216
lfingers 7.12502
lthumb -18.9035 -0.120199
rfemur -30.8889 -1.52584 10.0715
rtibia 35.6629
rfoot -6.46417 13.6053
rtoes -33.0727
lfemur 8.48399 -8.93891 -22.7208
ltibia 50.2478
lfoot 1.58813 16.8175
ltoes 1.07846
169
root 5.95379 18.4039 -28.7335 126.902 -81.0592 -120.214
lowerback -2.85047 -4.95008 8.35565
upperback 7.53311 -7.80306 2.72365
thorax 8.93519 -3.4557 -2.51499
lowerneck -3.90852 6.72712 1.27449
upperneck 0.864203 9.0407 -6.86397
head 1.3424 4.40741 -2.14824
rclavicle 3.58309e-014 -4.58199e-014
rhumerus -60.2027 2.37209 -88.1274
rradius 76.9662
rwrist -1.56056
rhand -29.6257 30.4068
rfingers 7.12502
rthumb -2.95594 0.447529
lclavicle 3.58309e-014 -4.58199e-014
lhumerus -25.8371 -40.3271 97.1952
lradius 95.4838
lwrist -8.01213
lhand -46.4567 -28.895
lfingers 7.12502
lthumb -19.1849 0.178728
rfemur -30.0655 -1.60674 10.5583
rtibia 37.0486
rfoot -8.24546 13.914
rtoes -31.8631
lfemur 7.8542 -8.9653 -22.2995
ltibia 53.4925
lfoot 1.05929 16.8317
ltoes -1.24126
170
root 5.70832 18.289 -28.8318 122.238 -80.9215 -116.365
lowerback -2.0571 -4.77318 8.84657
upperback 7.91993 -7.58362 2.81109
thorax 8.88429 -3.33092 -2.60901
lowerneck -4.50046 6.67605 1.22348
upperneck 0.780359 8.97537 -7.03502
head 1.42315 4.36019 -2.17843
rclavicle 1.31695e-014 -2.98177e-015
rhumerus -59.0027 2.5279 -88.2985
rradius 77.0557
rwrist -1.58663
rhand -30.1366 30.1789
rfingers 7.12502
rthumb -3.4494 0.227038
lclavicle 1.31695e-014 -2.98177e-015
lhumerus -26.5533 -40.2808 97.8248
lradius 94.9901
lwrist -8.49383
lhand -46.4903 -28.2649
lfingers 7.12502
lthumb -19.2172 0.8056
rfemur -28.9362 -1.63012 11.106
rtibia 38.5128
rfoot -10.1184 14.4716
rtoes -29.9859
lfemur 7.40094 -8.77225 -21.7405
ltibia 56.7931
lfoot 0.238093 15.4599
ltoes -2.55463
171
root 5.46232 18.1767 -28.9279 117.565 -80.6712 -112.61
lowerback -1.14624 -4.58743 9.41564
upperback 8.33027 -7.34092 2.89088
thorax 8.79072 -3.19202 -2.74476
lowerneck -4.86622 6.59223 1.27811
upperneck 0.512155 8.84952 -7.30498
head 1.4138 4.28956 -2.27192
rclavicle -2.38293e-014 1.2921e-014
rhumerus -57.748 2.9308 -88.5154
rradius 77.1421
rwrist -1.67899
rhand -30.6984 30.1438
rfingers 7.12502
rthumb -3.99186 0.20144
lclavicle -2.38293e-014 1.2921e-014
lhumerus -27.1253 -40.2047 98.3934
lradius 94.3428
lwrist -8.61178
lhand -46.3977 -27.5024
lfingers 7.12502
lthumb -19.1282 1.57702
rfemur -27.6624 -1.71375 11.7741
rtibia 39.9934
rfoot -12.259 14.9911
rtoes -29.2221
lfemur 6.95958 -8.54208 -21.0932
ltibia 60.0989
lfoot -0.790011 13.626
ltoes -2.54077
